<?xml version="1.0" standalone="no"?>
<!DOCTYPE svg PUBLIC "-//W3C//DTD SVG 20010904//EN"
 "http://www.w3.org/TR/2001/REC-SVG-20010904/DTD/svg10.dtd">
<svg version="1.0" xmlns="http://www.w3.org/2000/svg"
 width="900.000000pt" height="900.000000pt" viewBox="0 0 900.000000 900.000000"
 preserveAspectRatio="xMidYMid meet">
<metadata>
Created by potrace 1.14, written by Peter Selinger 2001-2017
</metadata>
<g transform="translate(0.000000,900.000000) scale(0.100000,-0.100000)"
fill="#000000" stroke="none">
<path d="M6475 7939 c-791 -56 -1499 -465 -1932 -1115 -31 -47 -60 -81 -63
-77 -4 4 -31 44 -60 87 -87 131 -176 241 -294 363 -374 390 -806 620 -1311
700 -156 24 -499 24 -650 -1 -546 -90 -1035 -369 -1352 -771 -231 -293 -360
-621 -419 -1065 -25 -186 -25 -654 0 -810 72 -458 243 -897 524 -1350 485
-779 1273 -1513 2315 -2154 328 -202 585 -343 982 -542 258 -130 294 -145 330
-141 53 5 194 66 436 187 1198 600 2229 1481 2861 2445 293 447 522 947 638
1390 76 294 110 550 110 844 0 769 -268 1335 -799 1693 -181 121 -441 239
-601 273 -197 41 -496 60 -715 44z m483 -159 c233 -36 456 -132 694 -300 119
-84 285 -249 370 -370 254 -358 374 -849 340 -1384 -43 -659 -268 -1290 -703
-1972 -605 -949 -1622 -1824 -2797 -2408 -114 -57 -221 -108 -238 -115 -29
-11 -41 -7 -225 85 -1048 521 -1861 1079 -2502 1719 -668 667 -1098 1391
-1245 2095 -48 229 -55 325 -49 621 7 351 39 564 118 804 40 119 143 329 214
435 291 432 777 719 1310 776 368 39 740 -34 1084 -212 221 -114 350 -211 551
-413 195 -196 348 -395 445 -581 46 -87 61 -100 117 -100 60 0 119 28 138 67
139 269 379 576 600 765 311 266 709 441 1120 494 123 15 543 12 658 -6z"/>
</g>
</svg>
